<svg xmlns="http://www.w3.org/2000/svg" xmlns:xlink="http://www.w3.org/1999/xlink" id="REACH_Family" data-name="REACH Family" width="2371.011" height="1582.216" viewBox="0 0 2371.011 1582.216"><defs><linearGradient id="linear-gradient" x1="1273.47" y1="5071.74" x2="1274.59" y2="5071.74" gradientUnits="objectBoundingBox"><stop offset="0" stop-color="#15bbf9"></stop><stop offset="0.11" stop-color="#10baf6"></stop><stop offset="0.41" stop-color="#08b8f1"></stop><stop offset="1" stop-color="#06b8ef"></stop></linearGradient><linearGradient id="linear-gradient-2" x1="0.972" y1="6.232" x2="1.958" y2="6.232" xlink:href="#linear-gradient"></linearGradient></defs><g id="illustration" transform="translate(0 0)"><path id="Path_52329" data-name="Path 52329" d="M1005.751,101.955a2055.067,2055.067,0,0,0-433.4,647.171c-84.923,206.288-157.482,589.255-157.482,589.255S424.3,919.3,339.707,893.593C244.7,864.634,156.2,1306.819,156.2,1306.819s23.1-364.746,20.824-592.183C173.44,372.342,43.29,6.62,43.29,6.62S290.9,620.6,1005.751,101.955Z" transform="translate(1365.26 208.695)" fill="#009abe"></path><path id="Path_52330" data-name="Path 52330" d="M279.711,14.3A169.2,169.2,0,0,0,58.13,111.91a160.735,160.735,0,0,0-1.952,95.01l29.609,3.254a190.345,190.345,0,0,0,110.3-19.848,152.6,152.6,0,0,1-97.613,53.687L73.1,246.94a184.162,184.162,0,0,0,97.613,82.32,169.2,169.2,0,0,0,221.581-97.613A175.7,175.7,0,0,0,279.711,14.3Z" transform="translate(1574.929 65.336)" fill="#009abe"></path><path id="Path_52331" data-name="Path 52331" d="M49.15,8.12Z" transform="translate(1550.071 256.001)" fill="url(#linear-gradient)"></path><path id="Path_52332" data-name="Path 52332" d="M59.85,168.789A272.013,272.013,0,0,1,154.209,29.2a176.679,176.679,0,0,1,203.359,6.182,65.075,65.075,0,0,0,75.487,4.881A182.209,182.209,0,0,1,302.906,242C159.09,288.2,59.85,168.789,59.85,168.789Z" transform="translate(1887.522 -0.003)" fill="url(#linear-gradient-2)"></path><path id="Path_52333" data-name="Path 52333" d="M0,158.4S289.91,446.36,387.522,702.431,496.2,1327.476,496.2,1327.476s49.132-441.209,130.15-472.77c102.168-40.347,152.6,406.719,152.6,406.719s12.039-473.746,29.609-588.6C876.887,234.216,971.246,8.08,971.246,8.08S699.883,581.716,0,158.4Z" transform="translate(0 254.74)" fill="#ceae47"></path><path id="Path_52334" data-name="Path 52334" d="M220.518,312.435a170.822,170.822,0,0,0,109-78.09,139.26,139.26,0,0,1-79.066-47.5,164.964,164.964,0,0,0,92.081,17.9,142.839,142.839,0,0,0,1.627-81.018A170.5,170.5,0,0,0,139.174,10.487,155.529,155.529,0,0,0,15.532,199.2,170.172,170.172,0,0,0,220.518,312.435Z" transform="translate(358.976 159.275)" fill="#ceae47"></path><path id="Path_52335" data-name="Path 52335" d="M29.14,39.087A561.923,561.923,0,0,1,167.1,324.766a1994.554,1994.554,0,0,1,8.46,264.855S229.246,400.9,269.918,391.793C321.327,380.405,328.811,593.2,328.811,593.2s20.5-173.75,29.284-225.485C382.5,231.058,482.713,29,482.713,29S299.527,305.244,29.14,39.087Z" transform="translate(919.004 914.505)" fill="#c9e5ff"></path><path id="Path_52336" data-name="Path 52336" d="M90.473,91.827A117.46,117.46,0,0,1,35.485,76.209,92.406,92.406,0,0,0,84.291,178.052a88.177,88.177,0,0,0,122.016-25.379A95.01,95.01,0,0,0,43.619,59.941,137.309,137.309,0,0,0,90.473,91.827Z" transform="translate(1054.523 797.99)" fill="#c9e5ff"></path></g></svg>